<?xml version="1.0" standalone="no"?>
<!DOCTYPE svg PUBLIC "-//W3C//DTD SVG 20010904//EN"
 "http://www.w3.org/TR/2001/REC-SVG-20010904/DTD/svg10.dtd">
<svg version="1.0" xmlns="http://www.w3.org/2000/svg"
 width="670.000000pt" height="670.000000pt" viewBox="0 0 670.000000 670.000000"
 preserveAspectRatio="xMidYMid meet">
<metadata>
Created by potrace 1.14, written by Peter Selinger 2001-2017
</metadata>
<g transform="translate(0.000000,670.000000) scale(0.100000,-0.100000)"
fill="#000000" stroke="none">
<path d="M3045 5793 c-120 -24 -231 -66 -300 -116 -22 -15 -112 -97 -200 -181
-88 -84 -179 -171 -202 -192 -23 -21 -110 -105 -195 -185 -84 -81 -178 -170
-208 -199 -420 -399 -429 -408 -472 -473 -101 -153 -135 -417 -77 -596 31 -94
77 -149 290 -345 35 -32 81 -75 101 -94 l37 -35 58 56 c32 30 110 105 173 166
l115 111 -55 52 c-31 29 -91 87 -135 128 -70 65 -125 130 -111 130 3 0 1 13
-4 29 -4 16 -4 49 2 75 12 56 -23 20 551 566 61 58 163 155 227 216 63 61 148
142 188 180 41 38 110 104 155 146 44 43 95 83 113 88 65 22 155 -4 215 -61
138 -132 393 -375 434 -414 43 -41 149 -142 433 -414 37 -34 106 -101 154
-147 49 -46 91 -84 95 -84 9 0 54 41 231 210 67 65 122 120 122 123 0 5 -40
45 -180 178 -30 28 -134 127 -230 219 -96 92 -195 186 -220 209 -25 24 -124
118 -220 210 -290 277 -318 303 -357 329 -114 78 -260 119 -414 119 -52 0
-103 -2 -114 -4z"/>
<path d="M6669 5676 c-2 -3 -16 -7 -29 -10 -14 -2 -133 -32 -265 -66 -422
-109 -789 -202 -833 -212 l-44 -10 29 -31 c15 -16 44 -45 63 -63 19 -18 64
-60 100 -94 l65 -61 -486 -482 c-267 -265 -811 -804 -1208 -1197 -426 -422
-735 -721 -754 -729 -39 -16 -116 -9 -163 16 -18 10 -100 82 -182 160 -182
174 -224 213 -231 213 -6 0 -38 -30 -257 -239 l-98 -93 124 -121 c304 -294
314 -302 423 -352 127 -59 315 -81 449 -54 80 16 180 50 210 70 14 11 30 19
36 19 22 0 127 101 927 895 1303 1292 1559 1545 1567 1545 4 0 46 -37 94 -82
47 -46 104 -100 127 -121 41 -37 42 -37 49 -15 4 13 30 106 58 208 28 102 93
336 145 520 112 397 110 390 98 390 -5 0 -12 -2 -14 -4z"/>
<path d="M3368 4455 c-2 -2 -23 -5 -48 -8 -63 -9 -77 -12 -143 -37 -99 -37 16
72 -1249 -1181 -645 -640 -1083 -1072 -1301 -1287 l-54 -54 -119 116 c-66 63
-122 112 -125 108 -3 -4 -34 -108 -68 -232 -34 -124 -66 -238 -71 -255 -22
-73 -42 -141 -86 -300 -25 -93 -57 -208 -70 -254 -14 -46 -22 -86 -20 -89 3
-2 20 1 39 7 19 7 43 13 53 15 10 2 208 52 439 111 231 59 475 121 542 138
l123 31 -39 36 c-84 75 -241 231 -241 237 0 4 121 127 269 273 219 215 1462
1447 2022 2003 70 70 139 131 153 137 41 15 134 3 190 -25 34 -16 109 -81 221
-190 94 -90 173 -164 176 -165 8 0 83 69 237 217 111 107 112 109 94 128 -25
26 -335 322 -374 357 -69 62 -251 138 -365 154 -45 6 -181 13 -185 9z"/>
<path d="M4800 3253 c-51 -49 -128 -122 -172 -163 l-79 -75 97 -90 c198 -183
232 -220 240 -261 23 -116 20 -121 -247 -375 -303 -289 -381 -363 -426 -405
-28 -27 -125 -119 -215 -205 -89 -86 -197 -189 -238 -228 -41 -39 -88 -75
-105 -79 -38 -11 -105 -5 -144 11 -31 13 -103 80 -575 531 -98 94 -196 187
-216 206 -202 192 -366 348 -380 363 -16 16 -22 12 -121 -82 -57 -54 -138
-131 -179 -170 l-75 -71 101 -98 c92 -88 338 -323 474 -452 30 -29 100 -96
156 -149 473 -452 467 -447 570 -497 194 -93 450 -93 649 1 38 18 85 44 102
57 28 21 167 152 391 366 26 26 122 117 212 202 618 587 649 619 693 710 58
120 77 213 73 355 -6 206 -38 268 -233 453 -202 191 -247 232 -254 232 -4 0
-49 -39 -99 -87z"/>
</g>
</svg>
